<?xml version="1.0" encoding="iso-8859-1"?>
<!-- Generator: Adobe Illustrator 19.0.0, SVG Export Plug-In . SVG Version: 6.00 Build 0)  -->
<svg version="1.1" id="Capa_1" xmlns="http://www.w3.org/2000/svg" xmlns:xlink="http://www.w3.org/1999/xlink" x="0px" y="0px"
	 viewBox="0 0 512 512" style="enable-background:new 0 0 512 512;" xml:space="preserve">
<linearGradient id="SVGID_1_" gradientUnits="userSpaceOnUse" x1="45.4995" y1="258" x2="466.5005" y2="258" gradientTransform="matrix(1 0 0 -1 0 514)">
	<stop  offset="0" style="stop-color:#00F2FE"/>
	<stop  offset="0.021" style="stop-color:#03EFFE"/>
	<stop  offset="0.293" style="stop-color:#24D2FE"/>
	<stop  offset="0.554" style="stop-color:#3CBDFE"/>
	<stop  offset="0.796" style="stop-color:#4AB0FE"/>
	<stop  offset="1" style="stop-color:#4FACFE"/>
</linearGradient>
<path style="fill:url(#SVGID_1_);" d="M369.025,235.105c17.031-14.694,30.476-33.699,38.434-55.734
	c5.262-14.568,7.93-29.871,7.93-45.483C415.388,60.062,355.326,0,281.5,0h-216c-11.046,0-20,8.954-20,20v472
	c0,11.046,8.954,20,20,20h259.303c21.992,0,44.001-4.558,61.973-12.834c10.033-4.62,14.421-16.499,9.801-26.531
	c-4.621-10.033-16.498-14.425-26.532-9.801c-12.836,5.911-28.903,9.166-45.242,9.166H85.5V40h196
	c51.77,0,93.888,42.118,93.888,93.888c0,10.966-1.868,21.697-5.551,31.896c-13.391,37.08-48.891,61.993-88.337,61.993
	c-0.965,0-1.906,0.092-2.834,0.224H165.5c-11.046,0-20,8.954-20,20s8.954,20,20,20h159.303c56.076,0,101.697,45.894,101.697,102.304
	c0,11.633-1.67,22.515-4.963,32.341c-3.51,10.473,2.135,21.809,12.608,25.318c2.108,0.707,4.251,1.043,6.358,1.043
	c8.361,0,16.157-5.285,18.961-13.65c4.669-13.932,7.037-29.089,7.037-45.052C466.5,307.34,425.567,253.805,369.025,235.105z"/>
<g>
</g>
<g>
</g>
<g>
</g>
<g>
</g>
<g>
</g>
<g>
</g>
<g>
</g>
<g>
</g>
<g>
</g>
<g>
</g>
<g>
</g>
<g>
</g>
<g>
</g>
<g>
</g>
<g>
</g>
</svg>
